<?xml version="1.0" encoding="UTF-8"?>
<svg id="Layer_1" data-name="Layer 1" xmlns="http://www.w3.org/2000/svg" viewBox="0 0 16 16">
  <path d="M8,1.4c3.64,0,6.6,2.96,6.6,6.6s-2.96,6.6-6.6,6.6S1.4,11.64,1.4,8,4.36,1.4,8,1.4M8,0h0C3.58,0,0,3.58,0,8h0c0,4.42,3.58,8,8,8h0c4.42,0,8-3.58,8-8h0C16,3.58,12.42,0,8,0h0Z"/>
  <path d="M7.73,9.94c-.22,0-.39-.06-.52-.19s-.19-.3-.19-.51v-.23c0-.27.05-.52.16-.73s.25-.41.44-.59.41-.35.65-.51c.24-.16.44-.31.6-.45s.28-.29.37-.46.12-.35.12-.57c0-.25-.06-.46-.19-.64s-.31-.32-.53-.42-.47-.15-.75-.15c-.23,0-.43.04-.62.11s-.35.19-.49.35-.25.37-.33.63c-.06.15-.14.26-.26.34s-.26.12-.42.12c-.21,0-.37-.06-.49-.18-.12-.12-.18-.28-.18-.47,0-.11.01-.22.04-.34s.07-.23.13-.35c.14-.3.35-.56.61-.78s.58-.38.93-.49.74-.17,1.15-.17c.56,0,1.05.1,1.5.29s.79.47,1.04.83.38.8.38,1.31c0,.48-.12.89-.36,1.24s-.59.66-1.03.95c-.27.18-.49.33-.64.46s-.26.26-.33.4-.11.3-.12.49c0,.02,0,.04,0,.07s0,.05,0,.07c-.02.18-.09.32-.2.43s-.27.16-.46.16ZM7.74,12.76c-.16,0-.31-.04-.45-.11s-.25-.18-.33-.31-.12-.28-.12-.44.04-.31.12-.44.19-.24.33-.32.29-.12.45-.12.32.04.45.12.24.18.33.32.12.28.12.44-.04.31-.12.44-.19.24-.33.31-.29.11-.45.11Z"/>
</svg>