<?xml version="1.0" encoding="UTF-8"?>
<svg id="Layer_1" data-name="Layer 1" xmlns="http://www.w3.org/2000/svg" viewBox="0 0 16 16">
  <path d="M8,2c3.31,0,6,2.69,6,6s-2.69,6-6,6-6-2.69-6-6,2.69-6,6-6M8,0h0C3.58,0,0,3.58,0,8h0c0,4.42,3.58,8,8,8h0c4.42,0,8-3.58,8-8h0C16,3.58,12.42,0,8,0h0Z" fill="#FFFFFF"/>
  <path d="M7.74,9.74c-.23,0-.41-.07-.54-.2s-.2-.31-.2-.53v-.17c0-.24.05-.45.14-.64s.22-.36.38-.52.36-.3.58-.44c.23-.15.42-.29.57-.41s.26-.26.33-.4.11-.31.11-.5-.05-.38-.16-.53-.25-.27-.43-.35-.38-.12-.61-.12c-.19,0-.36.03-.52.09s-.29.15-.41.28-.21.3-.28.51c-.06.15-.16.27-.29.35s-.28.12-.44.12c-.22,0-.39-.06-.52-.19-.13-.13-.19-.29-.19-.51,0-.11.01-.21.04-.32s.07-.22.12-.33c.13-.27.32-.49.57-.69s.54-.34.88-.45.7-.16,1.1-.16c.54,0,1.01.09,1.43.27s.74.44.98.78.36.74.36,1.22c0,.44-.11.81-.33,1.12s-.53.6-.95.86c-.25.16-.45.29-.59.41s-.24.23-.3.34-.1.25-.12.41c0,.02,0,.03,0,.05s0,.04,0,.06c-.03.18-.11.31-.22.41s-.28.15-.47.15ZM7.76,12.36c-.17,0-.33-.04-.46-.12s-.25-.19-.34-.32-.13-.29-.13-.45.04-.31.13-.45.2-.24.34-.32.29-.12.46-.12.33.04.47.12.25.19.34.32.13.28.13.45-.04.31-.13.45-.2.24-.34.32-.3.12-.47.12Z" fill="#FFFFFF"/>
</svg>